<mxfile host="www.draw.io" modified="2020-03-10T17:40:24.767Z" agent="Mozilla/5.0 (Windows NT 10.0; Win64; x64) AppleWebKit/537.36 (KHTML, like Gecko) Chrome/76.0.3809.132 Safari/537.36" etag="q4DY0ro-wGt2eVa5zPWE" version="12.8.2" type="github">
  <diagram id="6a731a19-8d31-9384-78a2-239565b7b9f0" name="Page-1">
    <mxGraphModel dx="621" dy="529" grid="1" gridSize="10" guides="1" tooltips="1" connect="1" arrows="1" fold="1" page="0" pageScale="1" pageWidth="1169" pageHeight="827" background="#ffffff" math="0" shadow="0">
      <root>
        <mxCell id="0" />
        <mxCell id="1" parent="0" />
        <mxCell id="aTesNLBUQpJ-7H_RE-9k-118" style="edgeStyle=orthogonalEdgeStyle;rounded=0;jumpSize=0;orthogonalLoop=1;jettySize=auto;html=1;exitX=0.5;exitY=1;exitDx=0;exitDy=0;entryX=0.577;entryY=0.017;entryDx=0;entryDy=0;entryPerimeter=0;startSize=1;sourcePerimeterSpacing=0;endSize=12;strokeWidth=1;fontStyle=1" edge="1" parent="1" source="aTesNLBUQpJ-7H_RE-9k-67" target="aTesNLBUQpJ-7H_RE-9k-117">
          <mxGeometry relative="1" as="geometry" />
        </mxCell>
        <mxCell id="aTesNLBUQpJ-7H_RE-9k-67" value="SERVO MOTOR ON&lt;br&gt;(Thread Guiding)" style="rounded=1;whiteSpace=wrap;html=1;fontSize=12;glass=0;strokeWidth=1;shadow=0;fontStyle=1" vertex="1" parent="1">
          <mxGeometry x="840" y="287" width="129" height="46" as="geometry" />
        </mxCell>
        <mxCell id="aTesNLBUQpJ-7H_RE-9k-111" style="edgeStyle=orthogonalEdgeStyle;rounded=0;jumpSize=0;orthogonalLoop=1;jettySize=auto;html=1;exitX=0.5;exitY=1;exitDx=0;exitDy=0;startSize=1;sourcePerimeterSpacing=0;endSize=12;strokeWidth=1;fontStyle=1" edge="1" parent="1" source="aTesNLBUQpJ-7H_RE-9k-81">
          <mxGeometry relative="1" as="geometry">
            <mxPoint x="610.0588235294119" y="200" as="targetPoint" />
          </mxGeometry>
        </mxCell>
        <mxCell id="aTesNLBUQpJ-7H_RE-9k-81" value="&lt;span&gt;&lt;font style=&quot;font-size: 19px&quot;&gt;START&lt;/font&gt;&lt;/span&gt;" style="ellipse;whiteSpace=wrap;html=1;fontStyle=1" vertex="1" parent="1">
          <mxGeometry x="550" y="90" width="120" height="72" as="geometry" />
        </mxCell>
        <mxCell id="aTesNLBUQpJ-7H_RE-9k-119" style="edgeStyle=orthogonalEdgeStyle;rounded=0;jumpSize=0;orthogonalLoop=1;jettySize=auto;html=1;exitX=1;exitY=0.5;exitDx=0;exitDy=0;entryX=0.594;entryY=-0.015;entryDx=0;entryDy=0;entryPerimeter=0;startSize=1;sourcePerimeterSpacing=0;endSize=12;strokeWidth=1;fontStyle=1" edge="1" parent="1" source="aTesNLBUQpJ-7H_RE-9k-128" target="aTesNLBUQpJ-7H_RE-9k-67">
          <mxGeometry relative="1" as="geometry">
            <mxPoint x="657.9999999999998" y="225" as="sourcePoint" />
          </mxGeometry>
        </mxCell>
        <mxCell id="aTesNLBUQpJ-7H_RE-9k-113" style="edgeStyle=orthogonalEdgeStyle;rounded=0;jumpSize=0;orthogonalLoop=1;jettySize=auto;html=1;exitX=0.5;exitY=1;exitDx=0;exitDy=0;entryX=0.5;entryY=0;entryDx=0;entryDy=0;startSize=1;sourcePerimeterSpacing=0;endSize=12;strokeWidth=1;fontStyle=1" edge="1" parent="1" source="aTesNLBUQpJ-7H_RE-9k-100" target="aTesNLBUQpJ-7H_RE-9k-107">
          <mxGeometry relative="1" as="geometry" />
        </mxCell>
        <mxCell id="aTesNLBUQpJ-7H_RE-9k-100" value="DC MOTOR ON" style="whiteSpace=wrap;html=1;fontStyle=1" vertex="1" parent="1">
          <mxGeometry x="550" y="280" width="140" height="60" as="geometry" />
        </mxCell>
        <mxCell id="aTesNLBUQpJ-7H_RE-9k-122" style="edgeStyle=orthogonalEdgeStyle;rounded=0;jumpSize=0;orthogonalLoop=1;jettySize=auto;html=1;exitX=0.5;exitY=1;exitDx=0;exitDy=0;startSize=1;sourcePerimeterSpacing=0;endSize=12;strokeWidth=1;fontStyle=1" edge="1" parent="1" source="aTesNLBUQpJ-7H_RE-9k-107">
          <mxGeometry relative="1" as="geometry">
            <mxPoint x="609.5882352941178" y="480" as="targetPoint" />
          </mxGeometry>
        </mxCell>
        <mxCell id="aTesNLBUQpJ-7H_RE-9k-107" value="ROTATE THE REEL&lt;br&gt;" style="shape=parallelogram;perimeter=parallelogramPerimeter;whiteSpace=wrap;html=1;rounded=1;fontStyle=1" vertex="1" parent="1">
          <mxGeometry x="534" y="380" width="152" height="60" as="geometry" />
        </mxCell>
        <mxCell id="aTesNLBUQpJ-7H_RE-9k-114" value="&lt;p style=&quot;line-height: 160%&quot;&gt;&lt;br&gt;&lt;/p&gt;" style="text;html=1;align=center;verticalAlign=middle;resizable=0;points=[];autosize=1;fontStyle=1" vertex="1" parent="1">
          <mxGeometry x="910" y="333" width="20" height="50" as="geometry" />
        </mxCell>
        <mxCell id="aTesNLBUQpJ-7H_RE-9k-133" style="edgeStyle=orthogonalEdgeStyle;rounded=0;jumpSize=0;orthogonalLoop=1;jettySize=auto;html=1;exitX=0.5;exitY=1;exitDx=0;exitDy=0;entryX=1;entryY=0.5;entryDx=0;entryDy=0;startSize=1;sourcePerimeterSpacing=0;endSize=12;strokeWidth=1;fontStyle=1" edge="1" parent="1" source="aTesNLBUQpJ-7H_RE-9k-117" target="aTesNLBUQpJ-7H_RE-9k-132">
          <mxGeometry relative="1" as="geometry" />
        </mxCell>
        <mxCell id="aTesNLBUQpJ-7H_RE-9k-117" value="UNIFORM&amp;nbsp; &lt;br&gt;MOTION&amp;nbsp;&lt;br&gt;OF THE THREAD" style="shape=parallelogram;perimeter=parallelogramPerimeter;whiteSpace=wrap;html=1;fontStyle=1" vertex="1" parent="1">
          <mxGeometry x="823" y="370" width="146" height="60" as="geometry" />
        </mxCell>
        <mxCell id="aTesNLBUQpJ-7H_RE-9k-130" style="edgeStyle=orthogonalEdgeStyle;rounded=0;jumpSize=0;orthogonalLoop=1;jettySize=auto;html=1;startSize=1;sourcePerimeterSpacing=0;endSize=12;strokeWidth=1;fontStyle=1" edge="1" parent="1" source="aTesNLBUQpJ-7H_RE-9k-128">
          <mxGeometry relative="1" as="geometry">
            <mxPoint x="615" y="280" as="targetPoint" />
          </mxGeometry>
        </mxCell>
        <mxCell id="aTesNLBUQpJ-7H_RE-9k-128" value="BLINK LED" style="rounded=1;whiteSpace=wrap;html=1;fontStyle=1" vertex="1" parent="1">
          <mxGeometry x="550" y="200" width="130" height="50" as="geometry" />
        </mxCell>
        <mxCell id="aTesNLBUQpJ-7H_RE-9k-138" style="edgeStyle=orthogonalEdgeStyle;rounded=0;jumpSize=0;orthogonalLoop=1;jettySize=auto;html=1;entryX=0.571;entryY=0.167;entryDx=0;entryDy=0;entryPerimeter=0;startSize=1;sourcePerimeterSpacing=0;endSize=12;strokeWidth=1;fontStyle=1" edge="1" parent="1" source="aTesNLBUQpJ-7H_RE-9k-132" target="aTesNLBUQpJ-7H_RE-9k-134">
          <mxGeometry relative="1" as="geometry" />
        </mxCell>
        <mxCell id="aTesNLBUQpJ-7H_RE-9k-132" value="WIND THREAD&amp;nbsp;" style="rounded=0;whiteSpace=wrap;html=1;fontStyle=1" vertex="1" parent="1">
          <mxGeometry x="550" y="480" width="120" height="50" as="geometry" />
        </mxCell>
        <mxCell id="aTesNLBUQpJ-7H_RE-9k-140" style="edgeStyle=orthogonalEdgeStyle;rounded=0;jumpSize=0;orthogonalLoop=1;jettySize=auto;html=1;exitX=0.5;exitY=1;exitDx=0;exitDy=0;entryX=0.5;entryY=0;entryDx=0;entryDy=0;startSize=1;sourcePerimeterSpacing=0;endSize=12;strokeWidth=1;fontStyle=1" edge="1" parent="1" source="aTesNLBUQpJ-7H_RE-9k-134">
          <mxGeometry relative="1" as="geometry">
            <mxPoint x="927.9999999999998" y="689.9999999999998" as="targetPoint" />
            <Array as="points">
              <mxPoint x="610" y="655" />
              <mxPoint x="928" y="655" />
            </Array>
          </mxGeometry>
        </mxCell>
        <mxCell id="aTesNLBUQpJ-7H_RE-9k-146" style="edgeStyle=orthogonalEdgeStyle;rounded=0;jumpSize=0;orthogonalLoop=1;jettySize=auto;html=1;exitX=0.5;exitY=1;exitDx=0;exitDy=0;entryX=0.5;entryY=0;entryDx=0;entryDy=0;startSize=1;sourcePerimeterSpacing=0;endSize=12;strokeWidth=1;fontStyle=1" edge="1" parent="1" source="aTesNLBUQpJ-7H_RE-9k-134" target="aTesNLBUQpJ-7H_RE-9k-144">
          <mxGeometry relative="1" as="geometry" />
        </mxCell>
        <mxCell id="aTesNLBUQpJ-7H_RE-9k-134" value="BLINK LED&lt;br&gt;(INDICATION OF COMPLETION)" style="shape=parallelogram;perimeter=parallelogramPerimeter;whiteSpace=wrap;html=1;rounded=1;fontStyle=1" vertex="1" parent="1">
          <mxGeometry x="540" y="570" width="140" height="60" as="geometry" />
        </mxCell>
        <mxCell id="aTesNLBUQpJ-7H_RE-9k-153" style="edgeStyle=orthogonalEdgeStyle;rounded=0;jumpSize=0;orthogonalLoop=1;jettySize=auto;html=1;exitX=0.5;exitY=1;exitDx=0;exitDy=0;entryX=0.59;entryY=-0.032;entryDx=0;entryDy=0;entryPerimeter=0;startSize=1;sourcePerimeterSpacing=0;endSize=12;strokeWidth=1;fontStyle=1" edge="1" parent="1" source="aTesNLBUQpJ-7H_RE-9k-144" target="aTesNLBUQpJ-7H_RE-9k-152">
          <mxGeometry relative="1" as="geometry" />
        </mxCell>
        <mxCell id="aTesNLBUQpJ-7H_RE-9k-164" value="" style="edgeStyle=orthogonalEdgeStyle;rounded=0;jumpSize=0;orthogonalLoop=1;jettySize=auto;html=1;startSize=1;sourcePerimeterSpacing=0;endSize=12;strokeWidth=1;fontStyle=1" edge="1" parent="1" source="aTesNLBUQpJ-7H_RE-9k-144" target="aTesNLBUQpJ-7H_RE-9k-163">
          <mxGeometry relative="1" as="geometry" />
        </mxCell>
        <mxCell id="aTesNLBUQpJ-7H_RE-9k-144" value="SERVO&amp;nbsp; MOTOR 2 ON&lt;br&gt;(for cutting )" style="shape=parallelogram;perimeter=parallelogramPerimeter;whiteSpace=wrap;html=1;rounded=1;fontStyle=1" vertex="1" parent="1">
          <mxGeometry x="495" y="680" width="230" height="60" as="geometry" />
        </mxCell>
        <mxCell id="aTesNLBUQpJ-7H_RE-9k-163" value="SERVO&amp;nbsp; MOTOR 2 ON&lt;br&gt;(for cutting )" style="shape=parallelogram;perimeter=parallelogramPerimeter;whiteSpace=wrap;html=1;rounded=1;fontStyle=1" vertex="1" parent="1">
          <mxGeometry x="805" y="680" width="230" height="60" as="geometry" />
        </mxCell>
        <mxCell id="aTesNLBUQpJ-7H_RE-9k-155" style="edgeStyle=orthogonalEdgeStyle;rounded=0;jumpSize=0;orthogonalLoop=1;jettySize=auto;html=1;exitX=0.5;exitY=1;exitDx=0;exitDy=0;startSize=1;sourcePerimeterSpacing=0;endSize=12;strokeWidth=1;fontStyle=1" edge="1" parent="1" source="aTesNLBUQpJ-7H_RE-9k-152" target="aTesNLBUQpJ-7H_RE-9k-156">
          <mxGeometry relative="1" as="geometry">
            <mxPoint x="600" y="859.9999999999998" as="targetPoint" />
          </mxGeometry>
        </mxCell>
        <mxCell id="aTesNLBUQpJ-7H_RE-9k-152" value="CUTS THE THREAD" style="rounded=0;whiteSpace=wrap;html=1;fontStyle=1" vertex="1" parent="1">
          <mxGeometry x="530" y="780" width="130" height="40" as="geometry" />
        </mxCell>
        <mxCell id="aTesNLBUQpJ-7H_RE-9k-154" value="Text" style="text;html=1;align=center;verticalAlign=middle;resizable=0;points=[];autosize=1;fontStyle=1" vertex="1" parent="1">
          <mxGeometry x="607" y="824" width="40" height="20" as="geometry" />
        </mxCell>
        <mxCell id="aTesNLBUQpJ-7H_RE-9k-159" style="edgeStyle=orthogonalEdgeStyle;rounded=0;jumpSize=0;orthogonalLoop=1;jettySize=auto;html=1;exitX=0.5;exitY=1;exitDx=0;exitDy=0;entryX=0.5;entryY=0;entryDx=0;entryDy=0;startSize=1;sourcePerimeterSpacing=0;endSize=12;strokeWidth=1;fontStyle=1" edge="1" parent="1" source="aTesNLBUQpJ-7H_RE-9k-156" target="aTesNLBUQpJ-7H_RE-9k-157">
          <mxGeometry relative="1" as="geometry" />
        </mxCell>
        <mxCell id="aTesNLBUQpJ-7H_RE-9k-156" value="BLINK&amp;nbsp; LED" style="shape=parallelogram;perimeter=parallelogramPerimeter;whiteSpace=wrap;html=1;fontStyle=1" vertex="1" parent="1">
          <mxGeometry x="535" y="859.9999999999998" width="120" height="60" as="geometry" />
        </mxCell>
        <mxCell id="aTesNLBUQpJ-7H_RE-9k-162" style="edgeStyle=orthogonalEdgeStyle;rounded=0;jumpSize=0;orthogonalLoop=1;jettySize=auto;html=1;exitX=0.5;exitY=1;exitDx=0;exitDy=0;entryX=0.5;entryY=0;entryDx=0;entryDy=0;startSize=1;sourcePerimeterSpacing=0;endSize=12;strokeWidth=1;fontStyle=1" edge="1" parent="1" source="aTesNLBUQpJ-7H_RE-9k-157" target="aTesNLBUQpJ-7H_RE-9k-160">
          <mxGeometry relative="1" as="geometry" />
        </mxCell>
        <mxCell id="aTesNLBUQpJ-7H_RE-9k-157" value="SERVO MOTOR 2 OFF" style="shape=parallelogram;perimeter=parallelogramPerimeter;whiteSpace=wrap;html=1;rounded=1;fontStyle=1" vertex="1" parent="1">
          <mxGeometry x="500" y="950" width="170" height="50" as="geometry" />
        </mxCell>
        <mxCell id="aTesNLBUQpJ-7H_RE-9k-160" value="STOP" style="rounded=1;whiteSpace=wrap;html=1;fontStyle=1" vertex="1" parent="1">
          <mxGeometry x="527" y="1030" width="120" height="60" as="geometry" />
        </mxCell>
      </root>
    </mxGraphModel>
  </diagram>
</mxfile>
